<svg width="870" height="176" viewBox="0 0 870 176" fill="none" xmlns="http://www.w3.org/2000/svg">
<g clip-path="url(#clip0_4006_46)">
<path d="M71 88C71 54.8629 97.8629 28 131 28H742C775.137 28 802 54.8629 802 88V92C802 125.137 775.137 152 742 152H131C97.8629 152 71 125.137 71 92V88Z" fill="#D9D9D9"/>
<circle cx="721.5" cy="90.5" r="37.5" fill="#C5C5C5"/>
<path d="M133.318 102V73.234H138.296V102H133.318ZM142.892 102V81.328H147.87V102H142.892ZM142.892 79.01V73.69H147.87V79.01H142.892ZM158.698 102L150.566 81.328H156L161.89 97.592H159.876L165.804 81.328H171.238L163.106 102H158.698ZM183.423 102.456C181.295 102.456 179.433 101.975 177.837 101.012C176.241 100.049 174.999 98.7447 174.113 97.098C173.226 95.4513 172.783 93.6273 172.783 91.626C172.783 89.5487 173.226 87.712 174.113 86.116C175.025 84.4947 176.253 83.2153 177.799 82.278C179.369 81.3407 181.117 80.872 183.043 80.872C184.664 80.872 186.083 81.138 187.299 81.67C188.54 82.202 189.591 82.9367 190.453 83.874C191.314 84.8113 191.973 85.888 192.429 87.104C192.885 88.2947 193.113 89.5867 193.113 90.98C193.113 91.3347 193.087 91.702 193.037 92.082C193.011 92.462 192.948 92.7913 192.847 93.07H176.887V89.27H190.035L187.679 91.056C187.907 89.8907 187.843 88.852 187.489 87.94C187.159 87.028 186.602 86.306 185.817 85.774C185.057 85.242 184.132 84.976 183.043 84.976C182.004 84.976 181.079 85.242 180.269 85.774C179.458 86.2807 178.837 87.0407 178.407 88.054C178.001 89.042 177.849 90.2453 177.951 91.664C177.849 92.9307 178.014 94.058 178.445 95.046C178.901 96.0087 179.559 96.756 180.421 97.288C181.307 97.82 182.321 98.086 183.461 98.086C184.601 98.086 185.563 97.8453 186.349 97.364C187.159 96.8827 187.793 96.2367 188.249 95.426L192.277 97.402C191.871 98.39 191.238 99.264 190.377 100.024C189.515 100.784 188.489 101.379 187.299 101.81C186.133 102.241 184.841 102.456 183.423 102.456ZM203.64 109.6V81.328H208.314V85.432L207.858 84.406C208.568 83.2913 209.53 82.43 210.746 81.822C211.962 81.1887 213.368 80.872 214.964 80.872C216.915 80.872 218.676 81.3533 220.246 82.316C221.817 83.2787 223.058 84.5707 223.97 86.192C224.908 87.8133 225.376 89.6373 225.376 91.664C225.376 93.6653 224.92 95.4893 224.008 97.136C223.096 98.7827 221.855 100.087 220.284 101.05C218.714 101.987 216.928 102.456 214.926 102.456C213.432 102.456 212.051 102.165 210.784 101.582C209.543 100.974 208.555 100.113 207.82 98.998L208.618 98.01V109.6H203.64ZM214.356 97.896C215.496 97.896 216.51 97.63 217.396 97.098C218.283 96.566 218.967 95.8313 219.448 94.894C219.955 93.9567 220.208 92.88 220.208 91.664C220.208 90.448 219.955 89.384 219.448 88.472C218.967 87.5347 218.283 86.8 217.396 86.268C216.51 85.7107 215.496 85.432 214.356 85.432C213.267 85.432 212.279 85.698 211.392 86.23C210.531 86.762 209.847 87.5093 209.34 88.472C208.859 89.4093 208.618 90.4733 208.618 91.664C208.618 92.88 208.859 93.9567 209.34 94.894C209.847 95.8313 210.531 96.566 211.392 97.098C212.279 97.63 213.267 97.896 214.356 97.896ZM229.172 102V81.328H233.846V85.926L233.466 85.242C233.947 83.6967 234.694 82.62 235.708 82.012C236.746 81.404 237.988 81.1 239.432 81.1H240.648V85.508H238.862C237.443 85.508 236.303 85.9513 235.442 86.838C234.58 87.6993 234.15 88.9153 234.15 90.486V102H229.172ZM253.188 102.456C251.06 102.456 249.198 101.975 247.602 101.012C246.006 100.049 244.765 98.7447 243.878 97.098C242.992 95.4513 242.548 93.6273 242.548 91.626C242.548 89.5487 242.992 87.712 243.878 86.116C244.79 84.4947 246.019 83.2153 247.564 82.278C249.135 81.3407 250.883 80.872 252.808 80.872C254.43 80.872 255.848 81.138 257.064 81.67C258.306 82.202 259.357 82.9367 260.218 83.874C261.08 84.8113 261.738 85.888 262.194 87.104C262.65 88.2947 262.878 89.5867 262.878 90.98C262.878 91.3347 262.853 91.702 262.802 92.082C262.777 92.462 262.714 92.7913 262.612 93.07H246.652V89.27H259.8L257.444 91.056C257.672 89.8907 257.609 88.852 257.254 87.94C256.925 87.028 256.368 86.306 255.582 85.774C254.822 85.242 253.898 84.976 252.808 84.976C251.77 84.976 250.845 85.242 250.034 85.774C249.224 86.2807 248.603 87.0407 248.172 88.054C247.767 89.042 247.615 90.2453 247.716 91.664C247.615 92.9307 247.78 94.058 248.21 95.046C248.666 96.0087 249.325 96.756 250.186 97.288C251.073 97.82 252.086 98.086 253.226 98.086C254.366 98.086 255.329 97.8453 256.114 97.364C256.925 96.8827 257.558 96.2367 258.014 95.426L262.042 97.402C261.637 98.39 261.004 99.264 260.142 100.024C259.281 100.784 258.255 101.379 257.064 101.81C255.899 102.241 254.607 102.456 253.188 102.456ZM272.513 102L264.381 81.328H269.815L275.705 97.592H273.691L279.619 81.328H285.053L276.921 102H272.513ZM287.804 102V81.328H292.782V102H287.804ZM287.804 79.01V73.69H292.782V79.01H287.804ZM307.183 102.456C305.055 102.456 303.193 101.975 301.597 101.012C300.001 100.049 298.759 98.7447 297.873 97.098C296.986 95.4513 296.543 93.6273 296.543 91.626C296.543 89.5487 296.986 87.712 297.873 86.116C298.785 84.4947 300.013 83.2153 301.559 82.278C303.129 81.3407 304.877 80.872 306.803 80.872C308.424 80.872 309.843 81.138 311.059 81.67C312.3 82.202 313.351 82.9367 314.213 83.874C315.074 84.8113 315.733 85.888 316.189 87.104C316.645 88.2947 316.873 89.5867 316.873 90.98C316.873 91.3347 316.847 91.702 316.797 92.082C316.771 92.462 316.708 92.7913 316.607 93.07H300.647V89.27H313.795L311.439 91.056C311.667 89.8907 311.603 88.852 311.249 87.94C310.919 87.028 310.362 86.306 309.577 85.774C308.817 85.242 307.892 84.976 306.803 84.976C305.764 84.976 304.839 85.242 304.029 85.774C303.218 86.2807 302.597 87.0407 302.167 88.054C301.761 89.042 301.609 90.2453 301.711 91.664C301.609 92.9307 301.774 94.058 302.205 95.046C302.661 96.0087 303.319 96.756 304.181 97.288C305.067 97.82 306.081 98.086 307.221 98.086C308.361 98.086 309.323 97.8453 310.109 97.364C310.919 96.8827 311.553 96.2367 312.009 95.426L316.037 97.402C315.631 98.39 314.998 99.264 314.137 100.024C313.275 100.784 312.249 101.379 311.059 101.81C309.893 102.241 308.601 102.456 307.183 102.456ZM325.852 102L318.746 81.328H323.99L329.196 97.022L327.372 96.984L332.92 81.328H337.328L342.838 96.984L341.014 97.022L346.22 81.328H351.464L344.358 102H339.912L334.288 85.622H335.96L330.26 102H325.852Z" fill="#3D3530" fill-opacity="0.75"/>
<path d="M725.5 102.115V93.115H705.43L705.363 88.5925H725.5V79.615L736.75 90.865L725.5 102.115Z" fill="#3D3530" fill-opacity="0.85"/>
</g>
<defs>
<clipPath id="clip0_4006_46">
<rect width="870" height="176" fill="white"/>
</clipPath>
</defs>
</svg>
