<svg width="870" height="176" viewBox="0 0 870 176" fill="none" xmlns="http://www.w3.org/2000/svg">
<g clip-path="url(#clip0_4007_15)">
<path d="M71 88C71 54.8629 97.8629 28 131 28H742C775.137 28 802 54.8629 802 88V92C802 125.137 775.137 152 742 152H131C97.8629 152 71 125.137 71 92V88Z" fill="#3D3530"/>
<circle cx="721.5" cy="90.5" r="37.5" fill="#57504A" fill-opacity="0.3"/>
<path d="M139.55 102L131.418 81.328H136.852L142.742 97.592H140.728L146.656 81.328H152.09L143.958 102H139.55ZM154.841 102V81.328H159.819V102H154.841ZM154.841 79.01V73.69H159.819V79.01H154.841ZM174.22 102.456C172.092 102.456 170.23 101.975 168.634 101.012C167.038 100.049 165.796 98.7447 164.91 97.098C164.023 95.4513 163.58 93.6273 163.58 91.626C163.58 89.5487 164.023 87.712 164.91 86.116C165.822 84.4947 167.05 83.2153 168.596 82.278C170.166 81.3407 171.914 80.872 173.84 80.872C175.461 80.872 176.88 81.138 178.096 81.67C179.337 82.202 180.388 82.9367 181.25 83.874C182.111 84.8113 182.77 85.888 183.226 87.104C183.682 88.2947 183.91 89.5867 183.91 90.98C183.91 91.3347 183.884 91.702 183.834 92.082C183.808 92.462 183.745 92.7913 183.644 93.07H167.684V89.27H180.832L178.476 91.056C178.704 89.8907 178.64 88.852 178.286 87.94C177.956 87.028 177.399 86.306 176.614 85.774C175.854 85.242 174.929 84.976 173.84 84.976C172.801 84.976 171.876 85.242 171.066 85.774C170.255 86.2807 169.634 87.0407 169.204 88.054C168.798 89.042 168.646 90.2453 168.748 91.664C168.646 92.9307 168.811 94.058 169.242 95.046C169.698 96.0087 170.356 96.756 171.218 97.288C172.104 97.82 173.118 98.086 174.258 98.086C175.398 98.086 176.36 97.8453 177.146 97.364C177.956 96.8827 178.59 96.2367 179.046 95.426L183.074 97.402C182.668 98.39 182.035 99.264 181.174 100.024C180.312 100.784 179.286 101.379 178.096 101.81C176.93 102.241 175.638 102.456 174.22 102.456ZM192.889 102L185.783 81.328H191.027L196.233 97.022L194.409 96.984L199.957 81.328H204.365L209.875 96.984L208.051 97.022L213.257 81.328H218.501L211.395 102H206.949L201.325 85.622H202.997L197.297 102H192.889ZM227.984 102V81.328H232.658V85.926L232.278 85.242C232.759 83.6967 233.507 82.62 234.52 82.012C235.559 81.404 236.8 81.1 238.244 81.1H239.46V85.508H237.674C236.255 85.508 235.115 85.9513 234.254 86.838C233.393 87.6993 232.962 88.9153 232.962 90.486V102H227.984ZM252.001 102.456C249.873 102.456 248.011 101.975 246.415 101.012C244.819 100.049 243.578 98.7447 242.691 97.098C241.804 95.4513 241.361 93.6273 241.361 91.626C241.361 89.5487 241.804 87.712 242.691 86.116C243.603 84.4947 244.832 83.2153 246.377 82.278C247.948 81.3407 249.696 80.872 251.621 80.872C253.242 80.872 254.661 81.138 255.877 81.67C257.118 82.202 258.17 82.9367 259.031 83.874C259.892 84.8113 260.551 85.888 261.007 87.104C261.463 88.2947 261.691 89.5867 261.691 90.98C261.691 91.3347 261.666 91.702 261.615 92.082C261.59 92.462 261.526 92.7913 261.425 93.07H245.465V89.27H258.613L256.257 91.056C256.485 89.8907 256.422 88.852 256.067 87.94C255.738 87.028 255.18 86.306 254.395 85.774C253.635 85.242 252.71 84.976 251.621 84.976C250.582 84.976 249.658 85.242 248.847 85.774C248.036 86.2807 247.416 87.0407 246.985 88.054C246.58 89.042 246.428 90.2453 246.529 91.664C246.428 92.9307 246.592 94.058 247.023 95.046C247.479 96.0087 248.138 96.756 248.999 97.288C249.886 97.82 250.899 98.086 252.039 98.086C253.179 98.086 254.142 97.8453 254.927 97.364C255.738 96.8827 256.371 96.2367 256.827 95.426L260.855 97.402C260.45 98.39 259.816 99.264 258.955 100.024C258.094 100.784 257.068 101.379 255.877 101.81C254.712 102.241 253.42 102.456 252.001 102.456ZM265.464 109.6V81.328H270.138V85.432L269.682 84.406C270.392 83.2913 271.354 82.43 272.57 81.822C273.786 81.1887 275.192 80.872 276.788 80.872C278.739 80.872 280.5 81.3533 282.07 82.316C283.641 83.2787 284.882 84.5707 285.794 86.192C286.732 87.8133 287.2 89.6373 287.2 91.664C287.2 93.6653 286.744 95.4893 285.832 97.136C284.92 98.7827 283.679 100.087 282.108 101.05C280.538 101.987 278.752 102.456 276.75 102.456C275.256 102.456 273.875 102.165 272.608 101.582C271.367 100.974 270.379 100.113 269.644 98.998L270.442 98.01V109.6H265.464ZM276.18 97.896C277.32 97.896 278.334 97.63 279.22 97.098C280.107 96.566 280.791 95.8313 281.272 94.894C281.779 93.9567 282.032 92.88 282.032 91.664C282.032 90.448 281.779 89.384 281.272 88.472C280.791 87.5347 280.107 86.8 279.22 86.268C278.334 85.7107 277.32 85.432 276.18 85.432C275.091 85.432 274.103 85.698 273.216 86.23C272.355 86.762 271.671 87.5093 271.164 88.472C270.683 89.4093 270.442 90.4733 270.442 91.664C270.442 92.88 270.683 93.9567 271.164 94.894C271.671 95.8313 272.355 96.566 273.216 97.098C274.103 97.63 275.091 97.896 276.18 97.896ZM301.104 102.456C299.077 102.456 297.228 101.987 295.556 101.05C293.909 100.113 292.592 98.8333 291.604 97.212C290.641 95.5907 290.16 93.7413 290.16 91.664C290.16 89.5867 290.641 87.7373 291.604 86.116C292.592 84.4947 293.909 83.2153 295.556 82.278C297.202 81.3407 299.052 80.872 301.104 80.872C303.13 80.872 304.967 81.3407 306.614 82.278C308.26 83.2153 309.565 84.4947 310.528 86.116C311.516 87.712 312.01 89.5613 312.01 91.664C312.01 93.7413 311.516 95.5907 310.528 97.212C309.54 98.8333 308.222 100.113 306.576 101.05C304.929 101.987 303.105 102.456 301.104 102.456ZM301.104 97.896C302.218 97.896 303.194 97.63 304.03 97.098C304.891 96.566 305.562 95.8313 306.044 94.894C306.55 93.9313 306.804 92.8547 306.804 91.664C306.804 90.448 306.55 89.384 306.044 88.472C305.562 87.5347 304.891 86.8 304.03 86.268C303.194 85.7107 302.218 85.432 301.104 85.432C299.964 85.432 298.963 85.7107 298.102 86.268C297.24 86.8 296.556 87.5347 296.05 88.472C295.568 89.384 295.328 90.448 295.328 91.664C295.328 92.8547 295.568 93.9313 296.05 94.894C296.556 95.8313 297.24 96.566 298.102 97.098C298.963 97.63 299.964 97.896 301.104 97.896Z" fill="#EDE8DE" fill-opacity="0.75"/>
<path d="M725.5 102.115V93.115H705.43L705.363 88.5925H725.5V79.615L736.75 90.865L725.5 102.115Z" fill="#EDE8DE" fill-opacity="0.85"/>
</g>
<defs>
<clipPath id="clip0_4007_15">
<rect width="870" height="176" fill="white"/>
</clipPath>
</defs>
</svg>
